# xmcd CD database file
#
# Track frame offsets:
#	150
#	11476
#	21591
#	36643
#	56011
#	73188
#	87728
#	99203
#	112761
#	130846
#	141568
#	156263
#	170096
#	186488
#	201871
#	214958
#	227438
#	243321
#
# Disc length: 3375 seconds
#
# Revision: 4
# Processed by: cddbd v1.5.2PL0 Copyright (c) Steve Scherf et al.
# Submitted via: CDex 1.51
#
DISCID=100d2d12
DTITLE=12 Anita O'Day - Coleção Folha Grandes Vozes
DYEAR=2012
DGENRE=Jazz
TTITLE0=What Is This Thing Called Love?
TTITLE1=Ten Cents a Dance
TTITLE2=Waiter, Make Mine Blues
TTITLE3=Bewitched, Bothered, and Bewildered
TTITLE4=Tea for Two
TTITLE5=Honeysuckle Rose
TTITLE6=Love Me or Leave Me
TTITLE7=It Shouldn't Happen to a Dream
TTITLE8=Miss Brown to You
TTITLE9=I Get I Kick Out of You
TTITLE10=Let's Face the Music and Dance
TTITLE11=Peel Me a Grape
TTITLE12=Angel Eyes
TTITLE13=Crazy He Calls Me
TTITLE14=Whisper Not
TTITLE15=Senor Blues
TTITLE16=Sing, Sing, Sing
TTITLE17=Avalon
EXTD=YEAR: 2012
EXTT0=
EXTT1=
EXTT2=
EXTT3=
EXTT4=
EXTT5=
EXTT6=
EXTT7=
EXTT8=
EXTT9=
EXTT10=
EXTT11=
EXTT12=
EXTT13=
EXTT14=
EXTT15=
EXTT16=
EXTT17=
PLAYORDER=
